<svg width="104" height="85" viewBox="0 0 104 85" fill="none" xmlns="http://www.w3.org/2000/svg">
<path fill-rule="evenodd" clip-rule="evenodd" d="M-5.40416e-05 20L-5.31673e-05 -1.1403e-07L2.60864 0L2.60864 20L-5.40416e-05 20Z" fill="white"/>
<path fill-rule="evenodd" clip-rule="evenodd" d="M20 2.6087L0 2.6087L0 0L20 0V2.6087Z" fill="white"/>
<path fill-rule="evenodd" clip-rule="evenodd" d="M84 -5.49158e-05L104 -5.31673e-05L104 2.60864L84 2.60864L84 -5.49158e-05Z" fill="white"/>
<path fill-rule="evenodd" clip-rule="evenodd" d="M101.391 20L101.391 -1.1403e-07L104 0L104 20L101.391 20Z" fill="white"/>
<path fill-rule="evenodd" clip-rule="evenodd" d="M104 65L104 85L101.391 85L101.391 65L104 65Z" fill="white"/>
<path fill-rule="evenodd" clip-rule="evenodd" d="M84 82.3913L104 82.3913L104 85L84 85L84 82.3913Z" fill="white"/>
<path fill-rule="evenodd" clip-rule="evenodd" d="M20 85.0001L0 85.0001L0 82.3914L20 82.3914L20 85.0001Z" fill="white"/>
<path fill-rule="evenodd" clip-rule="evenodd" d="M2.60869 65L2.6087 85L0 85L-8.74228e-07 65L2.60869 65Z" fill="white"/>
<g clip-path="url(#clip0_207_315)">
<path d="M35.356 68.7324H30.2712V16.338H72.6441V68.7324H35.356Z" stroke="white" stroke-width="3" stroke-linecap="round" stroke-linejoin="round"/>
<path d="M38.7457 27H52.3051" stroke="white" stroke-width="3" stroke-linecap="round" stroke-linejoin="round"/>
<path d="M38.678 57.2113H64.1017" stroke="white" stroke-width="3" stroke-linecap="round" stroke-linejoin="round"/>
<path d="M38.678 47.2113H64.1017" stroke="white" stroke-width="3" stroke-linecap="round" stroke-linejoin="round"/>
<path d="M38.678 37.2113H64.1017" stroke="white" stroke-width="3" stroke-linecap="round" stroke-linejoin="round"/>
</g>
<defs>
<clipPath id="clip0_207_315">
<rect width="45" height="55" fill="white" transform="translate(29 15)"/>
</clipPath>
</defs>
</svg>
