<svg width="104" height="85" viewBox="0 0 104 85" fill="none" xmlns="http://www.w3.org/2000/svg">
<path d="M82.5 41C82.5 57.2924 69.2924 70.5 53 70.5C36.7076 70.5 23.5 57.2924 23.5 41C23.5 24.7076 36.7076 11.5 53 11.5C69.2924 11.5 82.5 24.7076 82.5 41Z" stroke="white" stroke-width="3"/>
<path d="M52.5 52C58.8513 52 64 47.0751 64 41C64 34.9249 58.8513 30 52.5 30C46.1487 30 41 34.9249 41 41C41 47.0751 46.1487 52 52.5 52Z" fill="white"/>
<path d="M46 40C48.7614 40 51 37.7614 51 35C51 32.2386 48.7614 30 46 30C43.2386 30 41 32.2386 41 35C41 37.7614 43.2386 40 46 40Z" fill="#EB004C"/>
<path fill-rule="evenodd" clip-rule="evenodd" d="M-5.40416e-05 20L-5.31673e-05 -1.1403e-07L2.60864 0L2.60864 20L-5.40416e-05 20Z" fill="white"/>
<path fill-rule="evenodd" clip-rule="evenodd" d="M20 2.6087L0 2.6087L0 0L20 0V2.6087Z" fill="white"/>
<path fill-rule="evenodd" clip-rule="evenodd" d="M84 -5.49158e-05L104 -5.31673e-05L104 2.60864L84 2.60864L84 -5.49158e-05Z" fill="white"/>
<path fill-rule="evenodd" clip-rule="evenodd" d="M101.391 20L101.391 -1.1403e-07L104 0L104 20L101.391 20Z" fill="white"/>
<path fill-rule="evenodd" clip-rule="evenodd" d="M104 65L104 85L101.391 85L101.391 65L104 65Z" fill="white"/>
<path fill-rule="evenodd" clip-rule="evenodd" d="M84 82.3913L104 82.3913L104 85L84 85L84 82.3913Z" fill="white"/>
<path fill-rule="evenodd" clip-rule="evenodd" d="M20 85.0001L0 85.0001L0 82.3914L20 82.3914L20 85.0001Z" fill="white"/>
<path fill-rule="evenodd" clip-rule="evenodd" d="M2.60869 65L2.6087 85L0 85L-8.74228e-07 65L2.60869 65Z" fill="white"/>
</svg>
