<svg width="59" height="119" viewBox="0 0 59 119" fill="none" xmlns="http://www.w3.org/2000/svg">
<path d="M58.4119 64.521L55.5907 55.3119C55.4881 54.9782 55.3771 54.6188 55.2551 54.2338C54.1233 50.5832 52.2286 44.4742 51.8569 40.5755C51.8061 40.0226 51.6352 39.4885 51.3567 39.0127C51.0782 38.5368 50.6993 38.1313 50.248 37.8262C49.8135 37.5294 49.3201 37.3362 48.8036 37.2607C48.2872 37.1852 47.7609 37.2293 47.2632 37.3898C47.1689 37.4212 47.0773 37.4583 46.9858 37.4954C47.99 28.9793 49.205 18.5067 49.9401 12.0412C50.0239 11.324 49.9669 10.5968 49.7724 9.90266C49.578 9.20851 49.2502 8.5615 48.8083 7.9999C48.1633 7.17678 47.3019 6.56152 46.3266 6.22736C45.3512 5.89319 44.303 5.8542 43.3067 6.11501C42.3104 6.37582 41.408 6.92545 40.7068 7.6985C40.0057 8.47154 39.5353 9.43543 39.3518 10.4754C37.668 20.4347 36.256 28.0866 35.1104 33.782C33.9058 33.3514 32.6021 33.3097 31.3738 33.6623C29.002 34.341 27.3848 36.3289 26.658 37.3699C21.9117 37.9973 19.4234 41.9046 18.5163 43.7013C17.3442 43.616 16.1684 43.8053 15.0777 44.2548C13.987 44.7044 13.0097 45.4025 12.2194 46.2966C8.80183 49.9586 6.86836 54.5675 5.83921 57.7845C4.9724 60.5541 4.87631 63.5178 5.56181 66.3406L9.49255 82.7539C9.63403 83.3442 9.76995 83.946 9.86704 84.5449C10.8518 90.1063 9.98355 96.0927 7.41761 101.403L0.144204 116.456C-0.019114 116.795 -0.044815 117.187 0.0727548 117.545C0.190325 117.903 0.441538 118.199 0.771128 118.367C0.962169 118.466 1.17318 118.516 1.38695 118.515C1.64508 118.515 1.89816 118.442 2.11771 118.302C2.33726 118.162 2.51458 117.963 2.6297 117.725L9.9031 102.669C12.7326 96.8143 13.6896 90.1948 12.5939 84.0344C12.4774 83.3756 12.3414 82.7168 12.1861 82.0722L8.25535 65.6618C7.69973 63.3566 7.78042 60.9378 8.48837 58.6772C9.42043 55.7368 11.1708 51.5472 14.2333 48.2702L14.261 48.2389C15.0822 47.2823 16.2247 46.6802 17.4594 46.5533C16.827 48.159 15.7756 50.1982 14.3803 51.1964C14.2308 51.3033 14.1032 51.4395 14.0048 51.5971C13.9065 51.7547 13.8393 51.9307 13.8071 52.1151C13.7749 52.2994 13.7783 52.4884 13.8172 52.6714C13.856 52.8544 13.9296 53.0277 14.0336 53.1814C14.1376 53.3351 14.27 53.4663 14.4233 53.5674C14.5766 53.6686 14.7478 53.7377 14.9271 53.7708C15.1064 53.8039 15.2903 53.8003 15.4682 53.7604C15.6462 53.7204 15.8147 53.6448 15.9643 53.5379C19.0739 51.3133 20.5108 46.3423 20.7217 45.5523C20.9242 45.0589 22.3167 41.8817 25.3709 40.6326L24.6801 42.7459C24.6218 42.9236 24.5982 43.1114 24.6105 43.2985C24.6229 43.4856 24.671 43.6684 24.7522 43.8364C24.8334 44.0043 24.946 44.1542 25.0835 44.2773C25.2211 44.4005 25.381 44.4945 25.554 44.5541C25.6963 44.6022 25.8451 44.6273 25.995 44.6282C26.2857 44.6282 26.569 44.5343 26.8049 44.3598C27.0408 44.1853 27.2175 43.939 27.3099 43.6557L28.7274 39.3149C29.0048 38.87 30.2642 36.925 32.1061 36.3945C32.9097 36.1736 33.7626 36.2431 34.5223 36.5913C33.0881 43.4361 32.145 46.7444 31.6845 47.4118C31.5719 47.5638 31.4902 47.7375 31.4442 47.9227C31.3982 48.1078 31.3888 48.3005 31.4167 48.4894C31.4445 48.6783 31.509 48.8596 31.6063 49.0223C31.7036 49.1851 31.8318 49.3261 31.9831 49.437C32.1345 49.5479 32.306 49.6264 32.4874 49.6678C32.6688 49.7092 32.8565 49.7127 33.0392 49.6781C33.222 49.6435 33.3961 49.5714 33.5513 49.4663C33.7065 49.3611 33.8395 49.225 33.9425 49.066C35.7872 46.4079 39.3823 26.8688 42.0731 10.9489C42.1656 10.4497 42.3951 9.98823 42.7345 9.61881C43.0738 9.2494 43.5089 8.98749 43.9883 8.86396C44.4677 8.74044 44.9715 8.76047 45.4402 8.92169C45.9088 9.08291 46.3229 9.37858 46.6335 9.77384C46.846 10.0389 47.0046 10.3451 47.0999 10.6743C47.1952 11.0035 47.2253 11.349 47.1883 11.6904C46.1952 20.3263 44.3755 36.1121 43.3047 44.8222C41.804 57.1542 46.4393 63.3431 46.6335 63.6026C46.8631 63.8928 47.1945 64.0785 47.5561 64.1199C47.9177 64.1612 48.2806 64.0548 48.5666 63.8236C48.8526 63.5924 49.0388 63.2549 49.0851 62.8839C49.1313 62.5128 49.0339 62.138 48.8139 61.8401C48.7723 61.7859 44.7084 56.2302 46.0565 45.1758C46.198 44.0093 46.3533 42.7145 46.5198 41.3285C46.5552 41.2872 46.5876 41.2433 46.6169 41.1973C46.9569 40.6541 47.4824 40.2614 48.0898 40.0964C48.1938 40.0631 48.3037 40.0545 48.4114 40.0713C48.519 40.0881 48.6216 40.1298 48.7112 40.1934C48.817 40.2649 48.9058 40.36 48.9711 40.4715C49.0364 40.5831 49.0765 40.7083 49.0885 40.8379C49.4879 45.0389 51.438 51.3276 52.6059 55.098C52.7252 55.4801 52.8361 55.8395 52.936 56.1675L55.7655 65.3766C56.3744 67.3346 56.3744 69.4391 55.7655 71.3972C53.3413 79.0469 49.3836 86.0889 44.148 92.0685L43.6542 92.619C42.4781 93.9337 41.1438 95.4196 40.5612 96.9283L31.9841 116.998C31.8591 117.34 31.8665 117.718 32.0047 118.054C32.1429 118.391 32.4014 118.66 32.7269 118.806C33.0523 118.952 33.42 118.965 33.754 118.841C34.0881 118.716 34.363 118.465 34.5223 118.139L43.1216 98.0435L43.1438 97.9864C43.5322 96.9683 44.7361 95.625 45.707 94.5441L46.2119 93.9737C51.7126 87.6902 55.8706 80.2907 58.4174 72.2528C59.1943 69.7371 59.1923 67.0355 58.4119 64.521Z" fill="white"/>
<path d="M39.3407 10.4754C39.5243 9.43542 39.9946 8.47153 40.6957 7.69848C41.3969 6.92544 42.2993 6.37581 43.2956 6.115C44.2919 5.85419 45.3401 5.89318 46.3155 6.22734C47.2908 6.56151 48.1523 7.17677 48.7972 7.99989C49.2395 8.56183 49.5675 9.20932 49.7619 9.90398C49.9563 10.5987 50.0132 11.3264 49.929 12.044C49.7931 13.2276 49.6516 14.551 49.4769 15.9684C50.8913 14.9703 51.9745 13.5507 52.5806 11.9006C53.1867 10.2506 53.2867 8.44922 52.8671 6.73898C52.4474 5.02874 51.5284 3.49167 50.2335 2.33463C48.9386 1.17758 47.3302 0.456065 45.6245 0.267181C43.9188 0.0782962 42.1977 0.431106 40.6929 1.27813C39.1881 2.12514 37.9717 3.42574 37.2075 5.00488C36.4433 6.58403 36.1679 8.36593 36.4183 10.1109C36.6688 11.8558 37.4331 13.48 38.6084 14.7648C38.8469 13.3816 39.091 11.9556 39.3407 10.4754Z" fill="#EB004C"/>
</svg>
