<svg width="106" height="70" viewBox="0 0 106 70" fill="none" xmlns="http://www.w3.org/2000/svg">
<path d="M105.609 34.9999C57.5858 -43.5192 14.1334 34.9999 14.1334 34.9999H14.216C62.2167 113.519 105.699 34.9999 105.699 34.9999H105.609Z" fill="#EB004C"/>
<path d="M35.3333 70C54.8474 70 70.6667 54.33 70.6667 35C70.6667 15.67 54.8474 0 35.3333 0C15.8193 0 0 15.67 0 35C0 54.33 15.8193 70 35.3333 70Z" fill="#2E97FC"/>
<path d="M35.3859 23.2341H34.6341C31.6434 23.2341 28.7752 24.411 26.6604 26.5058C24.5456 28.6006 23.3575 31.4418 23.3575 34.4043V35.149C23.3575 44.9043 35.1228 49.9756 42.2872 43.2809L43.039 42.5363C50.5943 35.6852 45.5574 23.2341 35.3859 23.2341Z" fill="#002B54"/>
<path d="M41.7008 30.8893C44.3664 30.8893 46.5272 28.7489 46.5272 26.1085C46.5272 23.4681 44.3664 21.3276 41.7008 21.3276C39.0353 21.3276 36.8745 23.4681 36.8745 26.1085C36.8745 28.7489 39.0353 30.8893 41.7008 30.8893Z" fill="white"/>
</svg>
