<svg width="104" height="85" viewBox="0 0 104 85" fill="none" xmlns="http://www.w3.org/2000/svg">
<path fill-rule="evenodd" clip-rule="evenodd" d="M-5.40416e-05 20L-5.31673e-05 -1.1403e-07L2.60864 0L2.60864 20L-5.40416e-05 20Z" fill="white"/>
<path fill-rule="evenodd" clip-rule="evenodd" d="M20 2.6087L0 2.6087L0 0L20 0V2.6087Z" fill="white"/>
<path fill-rule="evenodd" clip-rule="evenodd" d="M84 -5.49158e-05L104 -5.31673e-05L104 2.60864L84 2.60864L84 -5.49158e-05Z" fill="white"/>
<path fill-rule="evenodd" clip-rule="evenodd" d="M101.391 20L101.391 -1.1403e-07L104 0L104 20L101.391 20Z" fill="white"/>
<path fill-rule="evenodd" clip-rule="evenodd" d="M104 65L104 85L101.391 85L101.391 65L104 65Z" fill="white"/>
<path fill-rule="evenodd" clip-rule="evenodd" d="M84 82.3913L104 82.3913L104 85L84 85L84 82.3913Z" fill="white"/>
<path fill-rule="evenodd" clip-rule="evenodd" d="M20 85.0001L0 85.0001L0 82.3914L20 82.3914L20 85.0001Z" fill="white"/>
<path fill-rule="evenodd" clip-rule="evenodd" d="M2.60869 65L2.6087 85L0 85L-8.74228e-07 65L2.60869 65Z" fill="white"/>
<path d="M87.1842 22.7838H21.8158V63.2162H87.1842V22.7838Z" stroke="white" stroke-width="3" stroke-linecap="round" stroke-linejoin="round"/>
<path d="M54 51C58.4183 51 62 47.4183 62 43C62 38.5817 58.4183 35 54 35C49.5817 35 46 38.5817 46 43C46 47.4183 49.5817 51 54 51Z" stroke="white" stroke-width="3" stroke-linecap="round" stroke-linejoin="round"/>
<path d="M80.1632 35.0562C78.1341 35.0562 76.1882 34.2644 74.7535 32.8549C73.3187 31.4455 72.5127 29.5338 72.5127 27.5405" stroke="white" stroke-width="3" stroke-linecap="round" stroke-linejoin="round"/>
<path d="M28.3043 50.7059C30.3998 50.7059 32.4098 51.5221 33.8938 52.9754C35.3778 54.4288 36.2147 56.4009 36.2211 58.4594" stroke="white" stroke-width="3" stroke-linecap="round" stroke-linejoin="round"/>
<path d="M28.3043 35.0562C29.3099 35.0594 30.3061 34.8671 31.2358 34.4905C32.1654 34.1139 33.01 33.5605 33.7211 32.862C34.4322 32.1635 34.9956 31.3336 35.3789 30.4204C35.7623 29.5071 35.958 28.5284 35.9548 27.5405" stroke="white" stroke-width="3" stroke-linecap="round" stroke-linejoin="round"/>
<path d="M80.1632 50.7059C78.0699 50.7059 76.0624 51.5228 74.5822 52.9769C73.1021 54.431 72.2705 56.403 72.2705 58.4594" stroke="white" stroke-width="3" stroke-linecap="round" stroke-linejoin="round"/>
</svg>
