<svg width="22" height="22" viewBox="0 0 22 22" fill="none" xmlns="http://www.w3.org/2000/svg">
<g clip-path="url(#clip0_207_10)">
<path d="M0 2.55555C0 1.81479 0.247749 1.20369 0.743248 0.722252C1.23875 0.240812 1.88291 6.13925e-05 2.67573 0C3.45435 0 4.08432 0.237036 4.56562 0.711109C5.06112 1.20004 5.30887 1.83708 5.30887 2.62223C5.30887 3.33334 5.06833 3.92593 4.58727 4.4C4.09177 4.88887 3.44057 5.1333 2.63366 5.1333H2.61246C1.83383 5.1333 1.20384 4.88887 0.722479 4.4C0.241119 3.91113 0.000293334 3.29632 0 2.55555ZM0.276055 22V7.15529H4.99075V22H0.276055ZM7.60232 22H12.3167V13.7111C12.3167 13.1925 12.3733 12.7925 12.4865 12.5111C12.6807 12.013 12.991 11.5737 13.389 11.2334C13.7925 10.8852 14.2986 10.7111 14.9074 10.7111C16.493 10.7111 17.2858 11.8296 17.2858 14.0666V22H22V13.4889C22 11.2962 21.5045 9.63328 20.5135 8.49998C19.5225 7.36667 18.213 6.80002 16.585 6.80002C14.7588 6.80002 13.3361 7.62225 12.317 9.26671V9.31109H12.2957L12.317 9.26671V7.15529H7.60232C7.63066 7.62937 7.64483 9.10343 7.64483 11.5775C7.64483 14.0515 7.63066 17.5257 7.60232 22Z" fill="white"/>
</g>
<defs>
<clipPath id="clip0_207_10">
<rect width="22" height="22" fill="white"/>
</clipPath>
</defs>
</svg>
